<svg width="126" height="28" viewBox="0 0 126 28" fill="none" xmlns="http://www.w3.org/2000/svg">
<path d="M16.726 14.3981C16.7193 14.4558 16.7129 14.5135 16.7037 14.571C16.7129 14.5135 16.7193 14.4558 16.726 14.3981ZM16.7519 14.0051C16.7516 14.0991 16.7471 14.193 16.7392 14.287C16.7471 14.193 16.7516 14.0991 16.7519 14.0051ZM16.6773 14.7098C16.668 14.7574 16.659 14.8049 16.648 14.8522C16.659 14.8049 16.668 14.7574 16.6773 14.7098ZM16.7494 8.13045C16.8135 7.06558 17.0783 6.02921 17.7355 5.2075C16.7027 4.28114 15.1285 4.0101 13.8455 4.53762C12.8513 4.94642 12.2548 5.97433 11.9978 7.02277C12.5613 7.55203 13.3532 8.34661 14.4454 9.53518L14.4536 9.55895C14.6357 9.74412 14.8175 9.92942 14.9915 10.1243C12.9657 7.85443 10.3654 6.27287 7.74782 4.71595C7.57322 4.61203 3.79123 2.29214 2.77427 1.52818C2.31893 1.18608 1.48503 0.518185 0.930254 0.0909672L0.930005 0.0908432C0.845756 0.0335979 0.744335 0 0.634948 0C0.610308 0 0.586787 0.00398064 0.563142 0.00721741C0.11228 0.0953236 0.0291511 0.777529 0.0186978 0.910934C-0.0472578 1.75653 0.0562801 3.19772 0.409205 4.28101C0.788138 5.44432 1.49623 6.24997 2.54318 6.86597C2.86474 7.05513 3.19726 7.22512 3.53052 7.39262C5.64483 8.45538 10.5129 10.4144 10.5129 14C10.5129 17.5856 5.64483 19.5446 3.53052 20.6074C3.19726 20.7749 2.86474 20.9449 2.54318 21.134C1.49623 21.75 0.788138 22.5557 0.409205 23.719C0.0562801 24.8023 -0.0472578 26.2435 0.0186978 27.0891C0.0291511 27.2225 0.11228 27.9046 0.563142 27.9928C0.586787 27.996 0.610308 28 0.634948 28C0.744335 28 0.845756 27.9664 0.930005 27.9092L0.930254 27.909C1.48503 27.4818 2.31893 26.8139 2.77427 26.4718C3.79123 25.7079 7.57322 23.388 7.74782 23.2841C10.3668 21.7263 12.9685 20.1441 14.9948 17.8722C15.4452 17.3673 16.2791 16.2417 16.6099 15.0015C16.6025 15.0294 16.5964 15.0575 16.5886 15.0853L16.5889 15.0858C17.1416 13.3367 16.9225 11.4631 16.7768 9.69011C16.7346 9.17778 16.7179 8.65075 16.7494 8.13045Z" fill="#FFC05A"/>
<path d="M31.8402 15.7466C30.8026 15.4007 29.9669 15.0837 29.3328 14.7955C28.718 14.4881 28.1896 14.1519 27.7477 13.7868C26.691 12.903 26.1626 11.6829 26.1626 10.1266C26.1626 8.45507 26.7966 7.13895 28.0647 6.17828C29.352 5.2176 31.1101 4.73727 33.3388 4.73727C35.1449 4.73727 36.5571 4.98704 37.5754 5.48659C38.5937 5.98614 39.1028 6.71625 39.1028 7.67692C39.1028 8.19569 38.978 8.6376 38.7282 9.00265C38.4784 9.36771 38.1614 9.55024 37.7771 9.55024C37.4697 9.55024 37.1527 9.48299 36.8261 9.34849C35.8462 9.02187 34.8663 8.85855 33.8864 8.85855C33.0218 8.85855 32.3878 8.97383 31.9843 9.20439C31.5808 9.45417 31.379 9.76158 31.379 10.1266C31.379 10.3956 31.4943 10.6262 31.7249 10.8183C31.9554 10.9912 32.3397 11.1642 32.8777 11.3371L34.4052 11.827C36.3649 12.4611 37.7867 13.2392 38.6705 14.1615C39.5736 15.0837 40.0251 16.2557 40.0251 17.6775C40.0251 19.3683 39.3526 20.7036 38.0077 21.6835C36.6627 22.6634 34.799 23.1534 32.4166 23.1534C30.5337 23.1534 29.0158 22.8555 27.863 22.2599C26.7294 21.6643 26.1626 20.8573 26.1626 19.839C26.1626 19.2818 26.3067 18.8111 26.5949 18.4268C26.9023 18.0234 27.2578 17.8216 27.6612 17.8216C27.9494 17.8216 28.3049 17.9369 28.7276 18.1675C29.842 18.7631 31.014 19.0609 32.2437 19.0609C33.2043 19.0609 33.8672 18.9168 34.2322 18.6286C34.6165 18.3404 34.8086 18.0041 34.8086 17.6199C34.8086 17.274 34.6838 17.005 34.434 16.8129C34.1842 16.6016 33.7231 16.3806 33.0506 16.1501L31.8402 15.7466Z" fill="#ffffff"/>
<path d="M56.6757 21.3377C56.6757 21.9909 56.5124 22.4328 56.1858 22.6634C55.8591 22.8748 55.4845 22.9708 55.0618 22.9516L54.4854 22.9228C53.5055 22.9228 52.8042 22.7499 52.3815 22.404C51.978 22.0582 51.7763 21.4626 51.7763 20.6172V14.2191C51.7763 12.7973 51.0942 12.0864 49.7301 12.0864C48.9999 12.0864 48.3563 12.2497 47.7991 12.5764V21.3377C47.7991 21.9909 47.6358 22.4328 47.3092 22.6634C46.9825 22.8748 46.6079 22.9708 46.1852 22.9516L45.6088 22.9228C44.6289 22.9228 43.9276 22.7499 43.5049 22.404C43.1014 22.0582 42.8997 21.4626 42.8997 20.6172V5.22721C42.8997 4.57395 43.0438 4.14165 43.332 3.9303C43.6202 3.71896 43.9948 3.61328 44.456 3.61328L45.09 3.6421C46.0699 3.6421 46.7616 3.81502 47.1651 4.16087C47.5878 4.50671 47.7991 5.10232 47.7991 5.94772V8.77209C48.1642 8.6376 48.6061 8.52232 49.1248 8.42625C49.6436 8.31097 50.1431 8.25333 50.6235 8.25333C52.5833 8.25333 54.0819 8.74327 55.1194 9.72316C56.157 10.6838 56.6757 12.0864 56.6757 13.9309V21.3377Z" fill="#ffffff"/>
<path d="M74.6541 15.6889C74.6541 18.033 73.972 19.8679 72.6079 21.1936C71.2629 22.5001 69.428 23.1534 67.1032 23.1534C64.8168 23.1534 63.0011 22.4809 61.6562 21.1359C60.2536 19.8294 59.5523 18.0138 59.5523 15.6889C59.5523 14.5745 59.7349 13.5562 60.0999 12.634C60.465 11.6925 60.9837 10.8952 61.6562 10.2419C63.0396 8.91619 64.8552 8.25333 67.1032 8.25333C68.1984 8.25333 69.2167 8.42625 70.1581 8.77209C71.0996 9.11793 71.9066 9.61748 72.579 10.2707C73.2515 10.924 73.7607 11.7214 74.1065 12.6628C74.4716 13.5851 74.6541 14.5938 74.6541 15.6889ZM64.567 15.6889C64.567 16.8417 64.788 17.7352 65.2299 18.3692C65.691 19.0032 66.3251 19.3203 67.132 19.3203C67.939 19.3203 68.5538 19.0032 68.9765 18.3692C69.4184 17.7352 69.6394 16.8417 69.6394 15.6889C69.6394 14.5361 69.4184 13.6523 68.9765 13.0375C68.5346 12.4034 67.9102 12.0864 67.1032 12.0864C66.2962 12.0864 65.6718 12.4034 65.2299 13.0375C64.788 13.6523 64.567 14.5361 64.567 15.6889Z" fill="#ffffff"/>
<path d="M83.9547 8.25333C86.4716 8.25333 88.393 8.85855 89.7187 10.069C91.2366 11.3947 91.9955 13.2776 91.9955 15.7177C91.9955 18.081 91.3615 19.9063 90.0934 21.1936C88.8253 22.4809 87.0384 23.1245 84.7328 23.1245C83.8298 23.1245 83.0612 22.9996 82.4272 22.7499V26.2083C82.4272 27.3227 81.8988 27.8606 80.8421 27.8222H80.208C79.2282 27.8222 78.5365 27.6493 78.133 27.3035C77.7295 26.9768 77.5278 26.3812 77.5278 25.5166V11.6829C77.5278 11.2026 77.6238 10.7991 77.816 10.4725C78.0081 10.1459 78.3251 9.82883 78.767 9.52142C79.3627 9.11793 80.1024 8.81052 80.9862 8.59917C81.8892 8.36861 82.8787 8.25333 83.9547 8.25333ZM84.0123 19.2626C85.9913 19.2626 86.9808 18.081 86.9808 15.7177C86.9808 13.2969 86.0297 12.0864 84.1276 12.0864C83.532 12.0864 82.9556 12.2305 82.3984 12.5187V18.8591C82.994 19.1281 83.532 19.2626 84.0123 19.2626Z" fill="#ffffff"/>
<path d="M99.9987 15.7466C98.9612 15.4007 98.1254 15.0837 97.4914 14.7955C96.8765 14.4881 96.3482 14.1519 95.9062 13.7868C94.8495 12.903 94.3211 11.6829 94.3211 10.1266C94.3211 8.45507 94.9552 7.13895 96.2233 6.17828C97.5106 5.2176 99.2686 4.73727 101.497 4.73727C103.303 4.73727 104.716 4.98704 105.734 5.48659C106.752 5.98614 107.261 6.71625 107.261 7.67692C107.261 8.19569 107.137 8.6376 106.887 9.00265C106.637 9.36771 106.32 9.55024 105.936 9.55024C105.628 9.55024 105.311 9.48299 104.985 9.34849C104.005 9.02187 103.025 8.85855 102.045 8.85855C101.18 8.85855 100.546 8.97383 100.143 9.20439C99.7393 9.45417 99.5376 9.76158 99.5376 10.1266C99.5376 10.3956 99.6529 10.6262 99.8834 10.8183C100.114 10.9912 100.498 11.1642 101.036 11.3371L102.564 11.827C104.523 12.4611 105.945 13.2392 106.829 14.1615C107.732 15.0837 108.184 16.2557 108.184 17.6775C108.184 19.3683 107.511 20.7036 106.166 21.6835C104.821 22.6634 102.958 23.1534 100.575 23.1534C98.6922 23.1534 97.1743 22.8555 96.0215 22.2599C94.8879 21.6643 94.3211 20.8573 94.3211 19.839C94.3211 19.2818 94.4652 18.8111 94.7534 18.4268C95.0609 18.0234 95.4163 17.8216 95.8198 17.8216C96.108 17.8216 96.4634 17.9369 96.8861 18.1675C98.0005 18.7631 99.1725 19.0609 100.402 19.0609C101.363 19.0609 102.026 18.9168 102.391 18.6286C102.775 18.3404 102.967 18.0041 102.967 17.6199C102.967 17.274 102.842 17.005 102.593 16.8129C102.343 16.6016 101.882 16.3806 101.209 16.1501L99.9987 15.7466Z" fill="#ffffff"/>
<path d="M118.464 23.211C116.177 22.9996 114.381 22.2407 113.074 20.9342C111.787 19.6085 111.143 17.8985 111.143 15.8042C111.143 15.2854 111.153 14.978 111.172 14.882C111.345 12.7301 112.075 11.0873 113.362 9.95372C114.65 8.82012 116.273 8.25333 118.233 8.25333C119.347 8.25333 120.385 8.44546 121.346 8.82973C122.306 9.214 123.113 9.75198 123.767 10.4437C124.785 11.5773 125.294 12.903 125.294 14.4208C125.294 14.7283 125.284 14.9108 125.265 14.9684C125.208 15.6025 124.987 16.0924 124.602 16.4383C124.218 16.7841 123.69 16.957 123.017 16.957H115.582C115.755 17.6679 116.264 18.2924 117.109 18.8303C117.974 19.3683 118.896 19.6373 119.876 19.6373C120.683 19.6373 121.413 19.5412 122.066 19.3491C122.278 19.2722 122.556 19.2338 122.902 19.2338C123.344 19.2338 123.661 19.3875 123.853 19.6949C124.045 20.0023 124.141 20.3674 124.141 20.7901C124.141 21.5394 123.834 22.1158 123.219 22.5193C122.604 22.9228 121.749 23.1534 120.654 23.211L119.501 23.2686L118.464 23.211ZM118.204 11.827C117.609 11.827 117.08 12.0096 116.619 12.3746C116.158 12.7397 115.841 13.2584 115.668 13.9309L120.654 13.9885C120.673 13.4121 120.452 12.9126 119.991 12.4899C119.53 12.048 118.934 11.827 118.204 11.827Z" fill="#ffffff"/>
</svg>
